# xmcd
#
# Track frame offsets: 
#        187
#        10715
#        23662
#        33775
#        45912
#        55900
#        68092
#        79780
#        92957
#        107355
#        128710
#        146482
#        164082
#        176582
#        191030
#
# Disc length: 2882 seconds
#
# Revision: 0
# Processed by: cddbd v1.4PL0 Copyright (c) Steve Scherf et al.
# Submitted via: ExactAudioCopy v0.95a3
#
DISCID=b90b400f
DTITLE=Omar - Blues Bag
DYEAR=1991
DGENRE=Blues
TTITLE0=Give Me Back My Wig
TTITLE1=Bessie Mac
TTITLE2=Big Chief Pontiac
TTITLE3=Sleeping In The Ground
TTITLE4=Lover Man
TTITLE5=Come On Pretty Baby
TTITLE6=Gotta Good Friend
TTITLE7=Leave Here Running
TTITLE8=Big Round World
TTITLE9=Omars Blues
TTITLE10=Angel Child
TTITLE11=Tears Like Rain
TTITLE12=Too Much
TTITLE13=Wine Headed Woman
TTITLE14=Blues In A Bottle
EXTD=
EXTT0=
EXTT1=
EXTT2=
EXTT3=
EXTT4=
EXTT5=
EXTT6=
EXTT7=
EXTT8=
EXTT9=
EXTT10=
EXTT11=
EXTT12=
EXTT13=
EXTT14=
PLAYORDER=
